<svg width="47" height="45" viewBox="0 0 47 45" fill="none" xmlns="http://www.w3.org/2000/svg">
<g clip-path="url(#clip0_155_355)">
<path d="M38.3538 0H8.64616C4.14716 0 0.5 3.65935 0.5 8.17338V36.8266C0.5 41.3407 4.14716 45 8.64616 45H38.3538C42.8528 45 46.5 41.3407 46.5 36.8266V8.17338C46.5 3.65935 42.8528 0 38.3538 0Z" fill="#470137"/>
<path d="M24.6818 11.8345L18.9422 21.3391L25.083 31.4326C25.1225 31.5033 25.1334 31.5865 25.1135 31.665C25.0929 31.7371 25.0238 31.692 24.8981 31.7118H20.5176C20.2088 31.7118 19.9934 31.701 19.8695 31.4948C19.4584 30.6896 19.0469 29.8898 18.6352 29.0955C18.2235 28.3011 17.7863 27.4905 17.3238 26.6637C16.8618 25.8387 16.4043 25.0026 15.9512 24.1554H15.9198C15.5081 24.9816 15.0811 25.8075 14.6389 26.6331C14.1966 27.4587 13.7595 28.2792 13.3274 29.0946C12.8954 29.9093 12.4531 30.7199 12.0007 31.5263C11.9181 31.7118 11.7745 31.7317 11.5689 31.7317H7.33921C7.25752 31.7317 7.21174 31.7641 7.20097 31.6812C7.18926 31.6057 7.20554 31.5285 7.24675 31.4642L13.2026 21.6471L7.40114 11.803C7.33921 11.721 7.32933 11.6535 7.37062 11.6022C7.39353 11.5762 7.4222 11.556 7.45432 11.5431C7.48644 11.5303 7.52111 11.5252 7.55554 11.5283H11.9064C12.0014 11.5232 12.0964 11.5389 12.1847 11.5742C12.2583 11.6167 12.3215 11.6752 12.3696 11.7454C12.7395 12.5704 13.1509 13.3959 13.6039 14.2221C14.0569 15.0483 14.5147 15.8616 14.9773 16.662C15.4393 17.4672 15.866 18.2826 16.2573 19.1082H16.2888C16.6999 18.2622 17.1164 17.4366 17.5383 16.6314C17.9602 15.8262 18.3923 15.0156 18.8345 14.1996C19.2761 13.3842 19.7028 12.5737 20.1145 11.7679C20.1386 11.6914 20.1811 11.6221 20.2384 11.5661C20.3146 11.5273 20.4003 11.5113 20.4853 11.5202H24.5247C24.563 11.513 24.6027 11.5185 24.6376 11.5359C24.6726 11.5533 24.7009 11.5817 24.7183 11.6167C24.7358 11.6517 24.7414 11.6915 24.7343 11.7299C24.7272 11.7684 24.7078 11.8036 24.6791 11.83L24.6818 11.8345Z" fill="#FF61F6"/>
<path d="M33.538 32.1135C32.1175 32.1353 30.71 31.8394 29.4178 31.2471C28.2143 30.6877 27.2081 29.7755 26.5319 28.6307C25.8329 27.4647 25.4831 26.0044 25.4825 24.25C25.4725 22.8301 25.8343 21.4325 26.5319 20.197C27.2511 18.9386 28.3087 17.9086 29.5839 17.2249C30.9202 16.4822 32.5359 16.1108 34.4312 16.1108C34.5335 16.1108 34.6672 16.1108 34.8324 16.1261C34.9976 16.1414 35.1915 16.1522 35.4186 16.172V10.0692C35.4186 9.92515 35.4805 9.85309 35.6035 9.85309H39.4912C39.5342 9.8469 39.5778 9.85801 39.6126 9.884C39.6474 9.90999 39.6706 9.94874 39.677 9.99179C39.6788 10.0074 39.6788 10.0231 39.677 10.0386V28.3362C39.677 28.6875 39.6923 29.0693 39.7228 29.4818C39.7533 29.8943 39.7791 30.266 39.8 30.5968C39.8038 30.6611 39.7881 30.7251 39.7551 30.7803C39.7222 30.8356 39.6734 30.8796 39.6151 30.9067C38.612 31.3262 37.5672 31.6375 36.4984 31.8352C35.5218 32.0159 34.5311 32.1091 33.538 32.1135ZM35.4231 28.275V19.8224C35.2563 19.7776 35.086 19.7475 34.9141 19.7323C34.7038 19.711 34.4926 19.7005 34.2813 19.7008C33.5323 19.6934 32.7921 19.8631 32.1206 20.1961C31.4682 20.5227 30.9114 21.0137 30.5048 21.621C30.083 22.24 29.872 23.0551 29.872 24.0662C29.8569 24.7411 29.9668 25.413 30.1961 26.0477C30.3826 26.559 30.6772 27.0239 31.0596 27.4103C31.4264 27.7653 31.87 28.0304 32.3558 28.1849C32.8693 28.3513 33.4059 28.4346 33.9455 28.4317C34.2328 28.4317 34.5 28.4215 34.7471 28.401C34.9747 28.3825 35.1997 28.3402 35.4186 28.275H35.4231Z" fill="#FF61F6"/>
</g>
<defs>
<clipPath id="clip0_155_355">
<rect width="46" height="45" fill="white" transform="translate(0.5)"/>
</clipPath>
</defs>
</svg>
