<svg width="32" height="32" viewBox="0 0 32 32" fill="none" xmlns="http://www.w3.org/2000/svg">
<g clip-path="url(#clip0_155_289)">
<path d="M16 24.7076C12.4016 24.7076 8.52875 23.3003 4.80029 20.6377C2.01307 18.6474 0.292752 16.6755 0.220867 16.5924C-0.0736223 16.2524 -0.0736223 15.7476 0.220867 15.4075C0.292752 15.3246 2.01299 13.3526 4.80029 11.3622C8.52882 8.69988 12.4016 7.29244 16 7.29244C19.5984 7.29244 23.4713 8.69981 27.1997 11.3622C29.9869 13.3526 31.7072 15.3245 31.7791 15.4075C32.0736 15.7476 32.0736 16.2523 31.7791 16.5924C31.7072 16.6753 29.987 18.6474 27.1997 20.6377C23.4713 23.3002 19.5985 24.7076 16 24.7076ZM2.14554 16.0001C2.84123 16.7094 4.15419 17.9568 5.88776 19.1904C8.26437 20.8816 11.948 22.8978 16 22.8978C20.052 22.8978 23.7357 20.8816 26.1122 19.1904C27.8456 17.957 29.1586 16.7095 29.8545 16.0001C29.1588 15.2907 27.8458 14.0433 26.1122 12.8097C23.7357 11.1185 20.052 9.10238 16 9.10238C11.948 9.10238 8.26437 11.1185 5.88776 12.8097C4.15441 14.0431 2.84137 15.2905 2.14554 16.0001Z" fill="#FD5B02"/>
<path d="M16 21.6104C12.9064 21.6104 10.3896 19.0936 10.3896 16.0001C10.3896 12.9066 12.9064 10.3897 16 10.3897C17.3605 10.3897 18.673 10.883 19.6954 11.7788C20.0714 12.1081 20.1092 12.6798 19.7799 13.0557C19.4505 13.4316 18.8788 13.4693 18.5029 13.1401C17.8106 12.5335 16.9216 12.1995 15.9999 12.1995C13.9043 12.1995 12.1994 13.9045 12.1994 16.0001C12.1994 18.0957 13.9043 19.8006 15.9999 19.8006C18.0957 19.8006 19.8005 18.0957 19.8005 16.0001C19.8005 15.5003 20.2057 15.0952 20.7054 15.0952C21.2051 15.0952 21.6103 15.5003 21.6103 16.0001C21.6104 19.0936 19.0936 21.6104 16 21.6104Z" fill="#FD5B02"/>
<path d="M16 17.8099C15.0021 17.8099 14.1902 16.998 14.1902 16.0001C14.1902 15.0021 15.0021 14.1903 16 14.1903C16.998 14.1903 17.8098 15.0021 17.8098 16.0001C17.8098 16.998 16.998 17.8099 16 17.8099Z" fill="#FD5B02"/>
</g>
<defs>
<clipPath id="clip0_155_289">
<rect width="32" height="32" fill="white"/>
</clipPath>
</defs>
</svg>
