<svg width="30" height="45" viewBox="0 0 30 45" fill="none" xmlns="http://www.w3.org/2000/svg">
<g clip-path="url(#clip0_155_275)">
<path d="M15.25 22.0573C15.25 20.1074 16.027 18.2372 17.4101 16.8584C18.7932 15.4795 20.669 14.7049 22.625 14.7049C24.581 14.7049 26.4568 15.4795 27.8399 16.8584C29.223 18.2372 30 20.1074 30 22.0573C30 24.0073 29.223 25.8775 27.8399 27.2563C26.4568 28.6352 24.581 29.4098 22.625 29.4098C20.669 29.4098 18.7932 28.6352 17.4101 27.2563C16.027 25.8775 15.25 24.0073 15.25 22.0573Z" fill="#1ABCFE"/>
<path d="M0.5 36.7622C0.5 34.8122 1.27701 32.9421 2.66009 31.5633C4.04317 30.1844 5.91903 29.4098 7.875 29.4098H15.25V36.7622C15.25 38.7122 14.473 40.5823 13.0899 41.9612C11.7068 43.34 9.83097 44.1147 7.875 44.1147C5.91903 44.1147 4.04317 43.34 2.66009 41.9612C1.27701 40.5823 0.5 38.7122 0.5 36.7622H0.5Z" fill="#0ACF83"/>
<path d="M15.25 0V14.7049H22.625C24.581 14.7049 26.4568 13.9303 27.8399 12.5514C29.223 11.1726 30 9.30244 30 7.35245C30 5.40246 29.223 3.53233 27.8399 2.15348C26.4568 0.77463 24.581 0 22.625 0L15.25 0Z" fill="#FF7262"/>
<path d="M0.5 7.35245C0.5 9.30244 1.27701 11.1726 2.66009 12.5514C4.04317 13.9303 5.91903 14.7049 7.875 14.7049H15.25V0H7.875C5.91903 0 4.04317 0.77463 2.66009 2.15348C1.27701 3.53233 0.5 5.40246 0.5 7.35245H0.5Z" fill="#F24E1E"/>
<path d="M0.5 22.0573C0.5 24.0073 1.27701 25.8775 2.66009 27.2563C4.04317 28.6352 5.91903 29.4098 7.875 29.4098H15.25V14.7049H7.875C5.91903 14.7049 4.04317 15.4795 2.66009 16.8584C1.27701 18.2372 0.5 20.1074 0.5 22.0573H0.5Z" fill="#A259FF"/>
</g>
<defs>
<clipPath id="clip0_155_275">
<rect width="29.5" height="44.1147" fill="white" transform="translate(0.5)"/>
</clipPath>
</defs>
</svg>
